<svg width="36" height="36" viewBox="0 0 36 36" fill="none" xmlns="http://www.w3.org/2000/svg">
<circle cx="18" cy="18" r="17.5" fill="#EFF6FF" stroke="#3B82F6"/>
<path d="M18.5 11L11 14.5L13 15.4V17.1C12.4 17.3 12 17.9 12 18.5C12 19.1 12.4 19.7 13 19.9V20L12.1 22.1C11.8 23 12 24 13.5 24C15 24 15.2 23 14.9 22.1L14 20C14.6 19.7 15 19.2 15 18.5C15 17.8 14.6 17.3 14 17.1V15.9L18.5 18L26 14.5L18.5 11ZM22.9 17.5L18.4 19.5L16 18.4V18.5C16 19.2 15.7 19.8 15.2 20.3L15.8 21.7V21.8C15.9 22.2 16 22.6 15.9 23C16.6 23.3 17.4 23.5 18.4 23.5C21.7 23.5 22.9 21.5 22.9 20.5V17.5Z" fill="#3B82F6"/>
</svg>
