<svg
      width="36"
      height="36"
      viewBox="0 0 36 36"
      fill="none"
      xmlns="http://www.w3.org/2000/svg"
    >
      <circle cx="18" cy="18" r="17.5" stroke="url(#paint0_linear_201_38)" />
      <path
        d="M21.9675 13.8922L21.6304 13.6577C23.3159 11.7376 21.2933 10.3453 20.3407 11.7816C19.4466 13.13 20.6631 14.8009 21.3959 16.97C22.5538 20.3997 22.3779 22.2464 20.883 24.0345C17.1162 28.5195 10.0664 26.8046 12.4994 22.1585C13.3348 20.5609 14.7858 19.4177 17.2628 19.6962C17.4973 19.9893 17.2481 20.1066 17.0722 20.1945C15.0643 21.1912 13.9064 25.1924 15.6505 25.1045C16.486 25.0752 17.7318 24.2397 18.3767 22.818C19.1242 21.1618 18.2008 19.0806 17.5412 17.1166C16.0023 12.4851 19.4906 8.48392 23.4772 10.5651C24.9868 11.3566 23.9902 14.1267 21.9676 13.8922H21.9675Z"
        fill="url(#paint1_linear_201_38)"
      />
      <defs>
        <linearGradient
          id="paint0_linear_201_38"
          x1="7.5"
          y1="4"
          x2="28.5"
          y2="31"
          gradientUnits="userSpaceOnUse"
        >
          <stop stop-color="#3B82F6" />
          <stop offset="1" stop-color="#8B5CF6" />
        </linearGradient>
        <linearGradient
          id="paint1_linear_201_38"
          x1="14"
          y1="0.5"
          x2="24"
          y2="35"
          gradientUnits="userSpaceOnUse"
        >
          <stop stop-color="#3B82F6" />
          <stop offset="1" stop-color="#8B5CF6" />
        </linearGradient>
      </defs>
</svg>